<?xml version="1.0" standalone="no"?>
<!DOCTYPE svg PUBLIC "-//W3C//DTD SVG 20010904//EN"
 "http://www.w3.org/TR/2001/REC-SVG-20010904/DTD/svg10.dtd">
<svg version="1.0" xmlns="http://www.w3.org/2000/svg"
 width="1800.000000pt" height="1800.000000pt" viewBox="0 0 1800.000000 1800.000000"
 preserveAspectRatio="xMidYMid meet">
<metadata>
Created by potrace 1.11, written by Peter Selinger 2001-2013
</metadata>
<g transform="translate(0.000000,1800.000000) scale(0.100000,-0.100000)"
fill="#000000" stroke="none">
<path d="M13420 17463 c8 -12 77 -93 152 -180 454 -526 815 -1038 1017 -1440
442 -880 686 -2349 811 -4883 13 -272 33 -1140 26 -1148 -8 -7 1 -22 -131 223
-579 1078 -895 1614 -1543 2615 -105 162 -190 295 -189 297 5 5 196 -37 282
-62 48 -14 136 -45 196 -68 59 -24 106 -40 104 -36 -15 24 -370 149 -495 174
-48 10 -112 40 -131 62 -42 48 -349 573 -434 743 -30 61 -58 110 -60 110 -13
0 291 -587 369 -712 46 -76 82 -138 79 -138 -2 0 -12 4 -22 10 -113 60 -594
123 -772 101 -52 -7 -77 -6 -87 2 -18 14 -256 345 -419 582 -139 203 -355 528
-523 790 l-102 160 -85 280 c-145 479 -230 742 -237 734 -2 -2 18 -80 45 -174
45 -154 188 -670 274 -985 124 -454 212 -846 355 -1568 138 -701 200 -942 441
-1737 68 -224 78 -285 46 -285 -19 0 -134 38 -165 54 -53 27 -171 220 -311
507 l-90 184 -41 205 c-22 113 -43 213 -46 223 -7 23 -24 22 -24 -3 0 -11 47
-235 105 -497 58 -263 111 -503 117 -533 6 -30 13 -49 15 -44 2 6 -19 123 -47
259 -27 137 -50 256 -50 264 0 8 38 -61 84 -154 90 -183 203 -364 254 -407 37
-31 127 -59 192 -62 44 -1 45 0 44 29 -1 17 -13 68 -26 114 l-25 84 76 53
c130 91 223 146 306 180 101 42 84 44 -32 3 -93 -33 -150 -62 -276 -142 -43
-27 -79 -48 -81 -46 -2 2 -33 117 -69 254 -140 532 -236 957 -342 1505 -123
635 -193 945 -290 1296 -31 108 -54 199 -52 201 2 1 75 -104 162 -234 247
-371 521 -763 712 -1015 l73 -97 -68 -22 c-37 -12 -98 -37 -136 -55 -70 -34
-206 -131 -206 -147 0 -5 21 -6 48 -3 104 14 438 46 472 45 32 0 41 -8 105
-86 305 -375 811 -829 1575 -1416 91 -69 182 -141 203 -158 21 -17 40 -30 42
-27 3 2 -41 40 -97 84 -872 682 -1326 1090 -1651 1479 l-109 130 44 6 c185 27
640 34 720 12 20 -6 64 -66 200 -273 96 -146 237 -359 313 -475 290 -440 610
-965 589 -965 -4 0 4 -12 18 -27 13 -16 40 -55 58 -88 18 -33 87 -157 153
-275 140 -252 498 -912 552 -1020 l38 -75 -6 -310 c-12 -561 -58 -1161 -163
-2104 l-44 -403 -103 -152 c-382 -564 -690 -932 -1032 -1237 -339 -301 -1072
-883 -1422 -1126 -55 -39 -114 -85 -131 -102 -16 -17 -34 -31 -41 -31 -6 0
-11 -4 -11 -10 0 -5 2 -10 5 -10 11 0 257 169 450 309 110 79 246 178 303 219
102 73 185 112 270 127 23 4 42 4 42 1 0 -3 -11 -40 -24 -83 -47 -148 -131
-511 -121 -521 6 -6 7 -2 44 153 54 223 77 287 234 646 11 24 48 63 109 112
51 42 94 73 95 69 2 -8 28 -390 45 -672 8 -123 12 -439 12 -790 0 -534 -2
-602 -21 -778 l-22 -193 -77 -87 c-162 -185 -296 -311 -419 -395 -137 -94
-326 -271 -416 -389 -59 -79 -135 -206 -127 -213 2 -3 34 37 70 88 85 118 208
257 297 334 38 33 126 96 196 139 174 108 244 171 422 377 18 20 34 37 36 37
18 0 -221 -1538 -383 -2469 -28 -155 -50 -285 -50 -287 0 -2 13 -4 28 -4 28 0
28 0 50 122 46 255 252 1492 282 1693 17 116 34 218 38 227 11 27 192 -114
341 -265 l125 -126 -22 -233 c-13 -128 -27 -299 -32 -379 -6 -96 -15 -157 -25
-175 -8 -16 -56 -200 -105 -408 -49 -209 -91 -380 -93 -382 -1 -1 -99 67 -217
152 -118 85 -219 153 -225 151 -37 -13 -4 -44 210 -197 124 -89 223 -165 220
-171 -4 -5 18 -9 50 -9 l56 0 -26 22 -26 23 78 324 78 325 3 -347 2 -347 30 0
30 0 0 338 c0 381 11 656 41 976 25 280 37 347 223 1288 343 1733 489 2564
605 3439 32 239 140 1211 191 1714 133 1325 149 2120 70 3540 -127 2281 -374
3704 -786 4526 -224 448 -671 1067 -1143 1584 -61 68 -101 100 -71 58z m-281
-4383 c134 -20 294 -60 341 -86 l25 -14 -30 7 c-48 13 -366 6 -555 -11 -96 -9
-180 -16 -186 -16 -14 0 -104 112 -104 129 0 5 15 12 33 14 67 10 347 -3 476
-23z m-511 -55 c46 -60 51 -75 25 -75 -16 0 -259 -27 -418 -46 l-50 -6 55 42
c30 23 73 51 95 63 48 25 202 76 230 77 13 0 36 -20 63 -55z m2546 -6361 c-9
-82 -17 -150 -19 -152 -3 -4 -75 96 -82 114 -2 7 20 50 51 94 31 45 56 86 56
92 0 6 3 9 6 6 3 -3 -2 -73 -12 -154z m-76 -188 c33 -56 46 -88 44 -110 -6
-64 -74 -572 -80 -600 -7 -26 -13 -19 -91 110 -46 77 -115 181 -153 231 l-69
93 83 112 c46 62 109 147 139 190 43 61 57 74 68 65 7 -6 34 -47 59 -91z
m-315 -416 c83 -112 257 -408 257 -436 0 -45 -113 -733 -201 -1229 l-24 -130
-16 75 c-80 355 -116 508 -155 650 -50 181 -218 731 -234 768 -9 21 0 34 83
130 51 59 121 142 156 185 35 43 67 75 71 70 4 -4 32 -42 63 -83z m-361 -525
c89 -287 186 -624 223 -780 61 -256 135 -612 135 -653 0 -72 2 -72 -125 -36
-63 19 -148 38 -188 43 -77 9 -276 0 -395 -19 -35 -6 -66 -9 -67 -8 -2 2 -8
127 -14 278 -13 295 -35 681 -51 874 -6 66 -7 123 -3 126 5 4 71 62 148 128
77 66 167 148 200 181 33 33 64 59 69 58 5 -2 35 -88 68 -192z m58 -1475 c98
-16 280 -71 280 -85 0 -19 -152 -806 -305 -1573 -74 -375 -135 -691 -135 -702
0 -11 -3 -20 -8 -20 -4 0 -37 34 -72 76 -92 108 -244 251 -322 304 -37 25 -67
52 -68 60 0 8 18 141 40 295 88 627 110 892 110 1320 0 271 1 294 18 299 14 4
112 16 252 29 75 8 148 6 210 -3z"/>
<path d="M7976 14955 c5 -208 18 -433 39 -680 l14 -160 -69 -345 c-109 -544
-201 -1122 -235 -1480 -26 -273 -14 -241 -98 -274 -147 -58 -297 -152 -416
-259 -56 -51 -66 -56 -72 -40 -13 36 -39 343 -50 598 -7 164 -10 465 -6 818 4
426 3 557 -6 554 -18 -6 -26 -171 -35 -707 l-8 -475 -92 -345 c-51 -190 -126
-487 -167 -660 -82 -339 -78 -329 -183 -455 -35 -41 -61 -75 -59 -75 3 0 37
38 77 85 40 47 74 84 76 83 1 -2 -6 -41 -17 -88 -38 -162 -98 -446 -128 -611
-81 -446 -192 -1340 -303 -2446 -23 -238 -46 -429 -49 -425 -11 11 -254 816
-384 1272 -130 452 -247 884 -269 993 -20 98 -83 813 -88 991 l-1 61 -8 -45
c-4 -27 -5 -5 -2 55 4 75 2 97 -6 89 -22 -21 -14 -213 30 -677 11 -121 19
-221 17 -223 -3 -2 -17 51 -32 119 -15 67 -30 129 -33 137 -3 8 -7 33 -9 54
-2 22 -8 44 -12 50 -5 6 -9 20 -10 31 -6 91 -20 122 -17 38 1 -32 -2 -64 -8
-70 -6 -9 -6 -13 2 -13 8 0 10 -8 6 -20 -3 -11 -2 -20 4 -20 5 0 12 12 14 28
2 15 5 -20 7 -78 2 -80 5 -95 10 -65 6 33 7 27 9 -37 4 -226 487 -1952 976
-3483 29 -93 72 -228 94 -300 22 -71 101 -326 176 -565 279 -890 386 -1276
665 -2393 275 -1100 381 -1618 474 -2317 43 -320 49 -446 44 -827 l-6 -353 23
0 c15 0 25 8 29 23 14 46 19 670 7 792 -39 397 -176 1153 -351 1940 -38 171
-71 320 -72 332 -2 17 25 44 127 128 72 58 183 154 248 212 65 58 119 103 120
102 49 -93 50 -98 44 -182 -4 -45 -16 -194 -27 -332 -32 -406 -40 -718 -40
-1494 0 -404 1 -735 3 -737 2 -2 149 1 328 6 178 5 441 12 585 15 l261 7 32
-124 c38 -143 143 -522 172 -620 17 -59 23 -68 43 -68 l23 0 -43 152 c-57 195
-174 633 -174 647 0 8 135 11 460 11 253 0 460 -2 460 -5 0 -3 -91 -182 -202
-397 -112 -216 -204 -395 -206 -400 -2 -4 9 -8 25 -8 27 0 33 10 128 200 l100
200 200 -200 c184 -183 203 -200 235 -200 34 0 30 4 -188 223 l-224 224 226
451 c124 249 226 459 226 468 0 41 -32 -11 -158 -254 l-136 -262 -70 5 c-39 3
-255 7 -480 9 -329 3 -411 7 -416 18 -4 7 -26 92 -48 188 -132 562 -181 875
-217 1380 -30 411 -32 474 -21 487 11 12 449 219 635 300 100 44 108 45 174
40 75 -7 112 -24 122 -59 13 -42 185 -457 262 -632 205 -465 581 -1158 1228
-2263 188 -321 189 -323 222 -323 32 0 33 1 19 23 -74 119 -615 1061 -808
1407 -237 426 -476 880 -463 880 3 0 78 -34 168 -76 191 -90 216 -100 412
-169 169 -59 502 -187 537 -206 22 -12 22 -11 8 6 -23 28 -222 119 -615 280
-170 70 -535 241 -553 259 -38 37 -323 710 -533 1256 -108 282 -317 854 -314
858 2 2 93 -24 202 -57 109 -33 227 -68 263 -77 65 -17 66 -17 195 -156 149
-160 261 -289 347 -401 55 -70 81 -97 62 -64 -23 40 -183 269 -214 307 -37 44
-110 158 -110 172 0 13 65 28 122 28 33 0 137 -16 231 -35 371 -77 818 -145
784 -120 -9 7 -15 14 -12 16 2 3 -60 15 -138 28 -205 33 -570 105 -813 161
-929 213 -1661 508 -2117 852 -553 417 -1201 1308 -1780 2448 -65 129 -123
237 -127 240 -9 6 80 825 150 1380 103 820 177 1262 306 1825 l34 150 83 83
c85 87 264 238 272 230 2 -2 20 -82 39 -178 88 -442 257 -1042 364 -1294 l30
-69 -32 -26 c-17 -14 -64 -55 -105 -91 l-74 -65 -99 0 c-91 0 -97 -1 -67 -13
17 -7 51 -17 76 -21 24 -5 46 -11 48 -13 3 -2 -18 -35 -46 -74 -98 -133 -196
-365 -221 -518 -16 -105 -3 -363 26 -526 40 -224 48 -261 53 -257 2 3 0 29 -5
58 -6 32 -7 73 -1 104 5 27 18 113 30 190 54 353 155 648 273 799 69 88 147
174 196 215 l46 39 53 -94 53 -95 -12 -62 c-6 -34 -14 -73 -17 -86 l-6 -25 29
21 c36 26 96 43 151 43 82 0 142 -83 143 -197 0 -97 -41 -171 -122 -220 -98
-59 -195 -62 -227 -6 -22 37 -11 -107 20 -264 52 -264 112 -419 236 -606 30
-45 76 -104 101 -130 43 -44 171 -137 188 -137 4 0 -23 28 -60 62 -99 91 -223
262 -265 366 -13 30 -12 35 9 57 13 13 27 22 31 19 5 -3 9 0 9 6 0 17 199 212
210 205 5 -3 15 3 22 14 8 11 26 25 41 32 15 7 27 16 27 21 0 4 3 7 8 6 4 -1
17 3 30 10 12 7 27 10 32 7 5 -3 21 6 36 20 104 96 402 109 590 24 69 -31 69
-31 69 -238 -1 -160 -4 -199 -24 -281 -35 -143 -36 -152 -10 -105 61 110 95
330 79 505 -34 373 -103 622 -234 844 -185 315 -376 445 -637 434 -88 -3 -103
-7 -175 -42 -49 -25 -100 -60 -138 -97 -33 -32 -61 -58 -62 -56 -1 1 -4 38 -5
82 l-2 80 89 42 c49 23 129 52 177 64 210 52 492 -6 860 -175 42 -19 77 -32
77 -28 0 44 -207 260 -340 355 l-25 17 45 -6 c25 -3 87 -16 139 -30 52 -13 96
-22 98 -20 11 11 -294 89 -414 106 -93 14 -270 2 -429 -27 -49 -9 -98 -16
-110 -16 -30 1 -124 49 -161 83 l-33 30 -14 327 c-20 453 -29 914 -20 1097 l7
154 144 57 c79 31 231 81 336 111 105 30 193 57 196 59 11 12 -11 17 -32 7
-12 -6 -98 -29 -191 -52 -92 -23 -225 -62 -295 -86 -69 -25 -135 -48 -145 -51
-18 -6 -19 -2 -12 53 4 32 10 62 14 65 4 4 61 21 127 37 143 36 331 56 429 47
86 -9 84 0 -3 14 -94 15 -294 -3 -438 -39 -65 -16 -120 -30 -122 -30 -17 0 60
672 125 1095 36 232 142 836 148 842 1 2 10 -63 20 -144 96 -840 201 -1219
518 -1887 225 -473 677 -1274 738 -1306 14 -8 20 -8 20 0 0 6 7 4 16 -4 8 -9
21 -16 27 -16 6 0 1 8 -12 18 -13 9 -34 26 -46 37 -27 23 -139 211 -331 557
-72 131 -135 234 -139 230 -5 -4 -5 -2 -1 5 3 7 -41 107 -99 224 -287 573
-442 992 -540 1460 -92 441 -153 934 -215 1719 l-19 245 5 -190z m-901 -3187
l15 -120 -58 -66 c-66 -76 -190 -227 -211 -257 -7 -11 8 5 35 35 100 112 185
202 214 227 l30 25 0 -29 c0 -24 -9 -36 -47 -63 -25 -18 -90 -76 -145 -128
-54 -52 -98 -91 -98 -86 -1 5 -12 -4 -26 -21 -20 -23 -24 -25 -20 -10 3 11 26
108 51 215 25 107 84 342 130 523 47 180 86 331 86 335 1 4 8 -98 15 -227 7
-129 20 -288 29 -353z m625 189 l0 -64 -172 -85 c-95 -48 -216 -114 -270 -147
-53 -34 -99 -61 -102 -61 -3 0 -6 18 -6 39 0 37 5 45 81 111 109 96 231 174
353 227 56 23 104 43 109 43 4 0 7 -29 7 -63z m10 -997 c11 -284 36 -737 60
-1100 11 -152 7 -231 -10 -214 -19 20 -172 340 -208 435 -102 269 -226 688
-301 1019 -36 157 -91 436 -91 461 0 22 218 148 408 235 l117 54 7 -292 c3
-161 12 -430 18 -598z m155 -783 l30 -15 -28 -11 c-15 -6 -39 -14 -52 -17 -23
-6 -25 -3 -25 27 0 19 -3 45 -7 59 l-6 25 29 -26 c16 -15 43 -34 59 -42z m620
-382 c48 -47 24 -81 -30 -43 -37 25 -42 37 -23 56 17 17 26 15 53 -13z m103
-116 c-2 -6 -8 -10 -13 -10 -5 0 -11 4 -13 10 -2 6 4 11 13 11 9 0 15 -5 13
-11z m-376 -451 c-6 -6 -15 -9 -18 -5 -4 3 -4 14 0 23 5 13 9 15 18 6 9 -9 9
-15 0 -24z m-1932 -1513 c83 -184 394 -750 570 -1035 42 -69 80 -131 84 -138
10 -17 -44 -8 -123 19 -30 10 -52 16 -49 13 14 -13 172 -84 188 -84 13 0 50
-47 121 -152 56 -84 126 -186 156 -226 77 -105 77 -102 -3 -102 -97 0 -198 24
-279 65 -89 45 -230 147 -317 227 l-68 63 -60 194 c-33 106 -60 196 -60 199 0
3 17 -10 38 -29 46 -44 67 -57 165 -102 82 -38 106 -42 35 -6 -91 46 -177 127
-249 237 -35 52 -58 114 -130 342 l-87 280 16 150 c8 82 17 150 19 150 2 0 17
-29 33 -65z m568 -1649 c99 -60 162 -84 262 -102 89 -15 164 -15 201 0 11 5
49 -36 146 -156 72 -90 178 -214 236 -277 l105 -114 -51 -46 c-153 -136 -322
-298 -435 -419 -70 -75 -152 -162 -182 -195 l-56 -59 -43 154 c-66 232 -395
1298 -427 1381 -4 10 36 -15 88 -56 53 -41 122 -90 156 -111z m1074 -761 c62
-59 183 -159 238 -198 l20 -14 -39 -379 c-22 -208 -54 -527 -72 -709 -30 -320
-32 -331 -57 -358 -14 -15 -29 -24 -33 -20 -10 12 -145 368 -189 502 -22 64
-62 207 -90 317 -28 111 -66 240 -85 286 -53 133 -116 321 -111 334 6 16 327
304 339 304 5 0 41 -29 79 -65z m361 -283 c66 -46 242 -145 359 -203 102 -51
106 -54 101 -80 -8 -42 17 -821 53 -1629 l7 -145 -109 -52 c-60 -28 -237 -113
-393 -188 -156 -75 -286 -134 -288 -131 -18 17 82 1159 187 2145 16 156 30
290 30 297 0 19 6 18 53 -14z m-808 -39 c3 -16 35 -103 71 -195 38 -100 84
-246 113 -365 61 -240 88 -324 197 -609 46 -122 84 -226 84 -230 0 -23 -480
-429 -491 -416 -3 4 -27 99 -53 212 -37 159 -274 1124 -301 1225 -4 15 14 41
66 100 155 173 291 315 299 310 4 -3 11 -17 15 -32z m1396 -270 c46 -20 162
-66 258 -103 l173 -66 31 -84 c111 -313 252 -699 328 -899 49 -128 89 -237 89
-241 0 -4 -17 -4 -37 1 -99 23 -107 20 -573 -197 -156 -73 -286 -132 -287
-130 -9 8 -76 1756 -67 1756 0 0 38 -17 85 -37z m-846 -1171 c-6 -16 -7 -16
-16 1 -8 13 -7 23 3 34 12 15 13 15 16 -1 2 -9 1 -25 -3 -34z m803 -952 c46
-644 83 -898 219 -1483 30 -131 53 -240 51 -241 -6 -6 -1113 -44 -1121 -39
-14 8 14 1621 28 1688 3 15 54 44 192 109 103 50 280 134 393 188 113 54 207
98 210 98 3 0 16 -144 28 -320z"/>
<path d="M6289 7528 c31 -56 43 -106 61 -256 14 -110 47 -223 84 -287 22 -36
40 -52 96 -80 38 -19 73 -35 77 -35 5 1 -10 10 -32 22 -120 62 -180 184 -209
422 -14 119 -18 133 -56 197 -48 81 -63 93 -21 17z"/>
<path d="M8741 14210 c-1 -31 24 -370 44 -595 49 -535 121 -1012 199 -1315 48
-189 124 -397 147 -403 25 -7 29 1 17 32 -21 55 -97 312 -131 446 -91 357
-189 976 -241 1530 -25 257 -33 333 -35 305z"/>
<path d="M16625 13856 c10 -14 19 -26 22 -26 7 0 -17 39 -28 46 -6 3 -3 -5 6
-20z"/>
<path d="M16637 13802 c3 -9 9 -21 12 -27 3 -5 6 -16 7 -25 1 -8 22 -87 47
-175 314 -1100 569 -2757 697 -4525 107 -1489 100 -2638 -26 -4070 -82 -938
-251 -2173 -390 -2855 -98 -478 -279 -1157 -493 -1852 -45 -143 -81 -264 -81
-267 0 -3 13 -6 28 -6 24 0 31 6 41 38 88 274 239 790 355 1207 l25 90 0 -56
c1 -66 -35 -1051 -44 -1186 l-5 -93 29 0 29 0 6 93 c3 50 18 416 32 812 l26
720 38 165 c82 349 167 815 231 1267 13 89 25 161 26 159 7 -7 -105 -1709
-128 -1936 -25 -251 -78 -638 -145 -1048 -18 -117 -34 -218 -34 -223 0 -5 13
-9 28 -9 32 0 25 -34 98 440 20 124 41 232 49 240 7 8 52 80 100 160 106 176
259 411 327 502 l50 68 75 -52 c98 -68 210 -173 290 -271 l63 -79 0 37 c0 65
-144 220 -324 349 l-77 55 145 181 c80 99 170 210 201 247 44 54 55 74 55 102
l-1 36 -22 -26 c-12 -15 -110 -135 -217 -268 -107 -132 -199 -241 -204 -241
-10 0 -354 229 -361 240 -2 3 5 124 15 270 10 146 31 465 46 710 l27 445 112
130 c62 72 141 160 176 195 65 66 256 217 264 209 9 -10 65 -143 111 -267 l49
-133 3 77 c3 69 -1 87 -34 173 -95 246 -243 512 -459 826 l-117 170 26 280
c121 1309 143 2400 71 3635 -103 1768 -338 3467 -651 4725 -71 283 -124 469
-135 473 -5 2 -7 8 -4 13 7 11 -16 89 -26 89 -4 0 -8 8 -8 18 -1 39 -5 51 -17
56 -9 3 -11 -1 -7 -12z m860 -9540 c151 -226 313 -500 313 -529 0 -5 -48 -45
-106 -88 -106 -79 -212 -183 -340 -334 -37 -44 -70 -78 -72 -76 -15 15 71
1195 88 1195 3 0 55 -76 117 -168z m-132 -2715 c83 -55 154 -103 158 -107 4
-4 -29 -58 -73 -121 -45 -63 -141 -209 -213 -325 -73 -117 -133 -209 -135
-205 -1 5 9 95 22 202 14 107 32 286 41 399 20 256 23 273 38 263 7 -3 80 -51
162 -106z"/>
<path d="M17600 13176 c0 -2 14 -14 30 -26 17 -12 30 -19 30 -16 0 2 -13 14
-30 26 -16 12 -30 19 -30 16z"/>
<path d="M17614 13132 c4 -7 9 -21 11 -31 2 -11 22 -99 44 -195 93 -402 201
-972 275 -1456 25 -162 47 -306 49 -320 2 -14 5 52 6 145 1 163 -1 183 -54
495 -61 358 -141 767 -211 1075 -42 187 -47 202 -77 228 -17 15 -26 27 -20 27
7 0 15 -4 18 -10 3 -5 11 -10 16 -10 15 0 2 16 -33 42 -17 12 -28 17 -24 10z"/>
<path d="M5408 12795 c-10 -19 -14 -35 -9 -35 5 0 12 6 15 13 3 6 3 1 0 -13
-4 -14 -11 -29 -17 -35 -7 -7 -8 -4 -4 8 4 9 2 17 -2 17 -5 0 -9 -17 -10 -37
0 -21 -5 -94 -10 -163 -14 -180 -14 -549 0 -530 8 12 9 10 5 -10 -4 -14 -9
-44 -12 -67 -6 -36 -4 -43 10 -43 9 0 19 6 21 13 2 6 9 181 16 387 15 479 17
508 24 520 3 6 3 10 -2 10 -4 0 -16 -16 -25 -35z"/>
<path d="M14180 12756 c0 -3 14 -12 30 -21 17 -9 30 -13 30 -11 0 3 -13 12
-30 21 -16 9 -30 13 -30 11z"/>
<path d="M14250 12716 c0 -3 9 -10 20 -16 11 -6 20 -8 20 -6 0 3 -9 10 -20 16
-11 6 -20 8 -20 6z"/>
<path d="M5191 12294 c0 -11 3 -14 6 -6 3 7 2 16 -1 19 -3 4 -6 -2 -5 -13z"/>
<path d="M5172 12230 c-5 -22 -6 -42 -1 -45 5 -3 7 -23 6 -44 -1 -22 -6 -37
-11 -34 -5 3 -6 -9 -3 -28 3 -19 8 -83 11 -144 7 -166 17 -245 29 -238 6 4 7
1 1 -8 -13 -21 -13 -38 -1 -46 7 -3 9 -3 5 2 -4 4 0 20 9 35 17 29 16 44 -14
445 -4 50 -6 102 -6 118 0 40 -13 33 -25 -13z m15 -32 c-3 -8 -6 -5 -6 6 -1
11 2 17 5 13 3 -3 4 -12 1 -19z m6 -128 c-3 -11 -7 -20 -9 -20 -2 0 -4 9 -4
20 0 11 4 20 9 20 5 0 7 -9 4 -20z"/>
<path d="M9217 11664 c-11 -12 107 -276 261 -579 94 -185 124 -226 51 -68 -74
158 -218 493 -213 493 3 0 47 -38 97 -84 87 -80 274 -234 343 -284 25 -17 33
-19 37 -8 3 8 0 22 -8 32 -11 16 -15 17 -31 4 -17 -14 -18 -13 -6 1 10 14 -2
28 -90 103 -146 124 -395 358 -403 379 -6 17 -26 23 -38 11z"/>
<path d="M13575 11436 c-10 -14 -29 -55 -44 -91 l-26 -65 -130 -4 c-143 -4
-213 -20 -364 -82 -181 -75 -268 -130 -381 -244 -58 -58 -120 -126 -138 -150
-28 -37 -24 -34 26 18 33 34 62 62 65 62 3 0 -14 -28 -37 -62 -67 -102 -122
-305 -99 -373 l9 -29 27 54 c59 120 210 286 332 366 302 196 575 246 858 158
255 -80 447 -185 755 -413 l113 -83 48 -97 c26 -53 56 -117 66 -144 10 -26 20
-46 22 -43 2 2 -23 73 -57 158 -99 250 -182 377 -330 503 -45 39 -88 74 -96
78 -21 12 -17 22 11 35 28 13 198 173 191 180 -3 2 -21 -12 -40 -31 -42 -43
-163 -115 -205 -123 -24 -5 -43 2 -94 34 -141 89 -426 212 -492 212 -15 0 -17
6 -12 45 4 25 16 68 28 96 24 55 20 75 -6 35z"/>
<path d="M12855 11430 c-13 -5 -14 -9 -5 -9 8 0 24 4 35 9 13 5 14 9 5 9 -8 0
-24 -4 -35 -9z"/>
<path d="M5419 11193 c0 -10 -2 -38 -5 -63 -2 -25 0 -39 4 -32 10 14 16 112 7
112 -3 0 -5 -8 -6 -17z"/>
<path d="M11720 11116 c0 -3 16 -31 35 -63 19 -32 44 -85 55 -118 25 -75 62
-256 54 -264 -3 -3 -69 -11 -147 -17 l-142 -11 105 -1 c58 0 125 3 150 6 l45
7 -2 65 c-1 36 -11 98 -21 138 -10 39 -16 72 -12 72 4 0 42 -36 84 -80 43 -44
80 -80 83 -80 2 0 1 9 -2 21 -7 20 -55 68 -131 130 -23 19 -50 48 -59 64 -58
100 -80 135 -87 135 -4 0 -8 -2 -8 -4z"/>
<path d="M5411 11064 c0 -11 3 -14 6 -6 3 7 2 16 -1 19 -3 4 -6 -2 -5 -13z"/>
<path d="M5427 11020 c-3 -11 -1 -20 4 -20 5 0 9 9 9 20 0 11 -2 20 -4 20 -2
0 -6 -9 -9 -20z"/>
<path d="M11952 10990 c0 -14 2 -19 5 -12 2 6 2 18 0 25 -3 6 -5 1 -5 -13z"/>
<path d="M11962 10945 c0 -11 4 -31 8 -45 6 -20 8 -21 8 -5 0 11 -4 31 -8 45
-6 20 -8 21 -8 5z"/>
<path d="M13285 10954 c-154 -24 -249 -105 -352 -302 -38 -71 -42 -83 -22 -66
85 75 211 67 301 -20 99 -94 89 -239 -24 -362 -101 -109 -299 -149 -353 -70
-15 20 -15 20 -15 -7 0 -46 50 -397 70 -495 43 -206 166 -490 254 -587 25 -27
45 -45 46 -39 0 6 -23 53 -51 105 -94 173 -178 382 -195 487 -6 38 -5 40 70
107 105 94 190 155 279 198 90 44 103 45 111 12 7 -27 39 -65 56 -65 24 0 50
41 50 79 0 50 11 54 155 53 88 0 128 -6 200 -27 101 -30 205 -76 226 -101 11
-13 14 -55 13 -183 -1 -181 -14 -262 -64 -405 -16 -44 -25 -85 -21 -89 11 -11
65 111 97 218 21 74 27 117 31 242 12 324 -41 562 -182 831 -140 264 -269 401
-434 458 -65 23 -188 36 -246 28z m285 -143 c14 -27 13 -51 -4 -51 -17 0 -49
47 -41 60 10 16 34 11 45 -9z m110 -96 c0 -8 -4 -15 -9 -15 -13 0 -22 16 -14
24 11 11 23 6 23 -9z m-265 -413 c0 -18 -20 -15 -23 4 -3 10 1 15 10 12 7 -3
13 -10 13 -16z"/>
<path d="M6499 10933 c-13 -16 -12 -17 4 -4 16 13 21 21 13 21 -2 0 -10 -8
-17 -17z"/>
<path d="M11982 10850 c0 -14 2 -19 5 -12 2 6 2 18 0 25 -3 6 -5 1 -5 -13z"/>
<path d="M8465 10553 c-94 -19 -203 -47 -215 -55 -12 -8 -12 -9 2 -4 10 3 57
13 105 22 157 30 319 20 546 -35 85 -20 92 -13 12 13 -160 52 -361 78 -450 59z"/>
<path d="M14691 10165 c1 -19 18 -51 18 -35 0 8 -4 22 -9 30 -5 8 -9 11 -9 5z"/>
<path d="M7102 8355 c0 -11 4 -31 8 -45 6 -20 8 -21 8 -5 0 11 -4 31 -8 45 -6
20 -8 21 -8 5z"/>
<path d="M11200 7669 c6 -19 10 -46 10 -60 0 -30 26 -57 40 -43 5 5 -3 33 -20
68 -35 71 -42 80 -30 35z"/>
<path d="M16477 6548 c-5 -413 -8 -431 -123 -993 -262 -1283 -314 -1551 -348
-1805 -64 -469 -82 -707 -90 -1175 l-5 -280 14 351 c31 814 90 1247 290 2126
35 156 98 434 140 618 42 184 94 423 117 530 l40 195 5 308 c6 337 -1 477 -22
477 -10 0 -14 -73 -18 -352z"/>
<path d="M11838 5793 c7 -3 16 -2 19 1 4 3 -2 6 -13 5 -11 0 -14 -3 -6 -6z"/>
<path d="M11945 5757 c77 -33 110 -37 102 -13 -5 15 -64 34 -129 41 l-53 6 80
-34z"/>
<path d="M11404 5724 c-67 -28 -177 -110 -182 -137 -5 -26 31 -21 58 8 13 14
64 53 112 86 115 78 117 86 12 43z"/>
<path d="M5340 4774 c0 -3 29 -218 64 -477 202 -1473 316 -2582 411 -3982 22
-327 20 -315 56 -315 30 0 30 0 24 47 -3 27 -14 172 -25 323 -101 1380 -169
2049 -315 3105 -58 416 -184 1276 -190 1293 -4 12 -25 17 -25 6z"/>
<path d="M12439 4253 c-13 -16 -12 -17 4 -4 16 13 21 21 13 21 -2 0 -10 -8
-17 -17z"/>
<path d="M4765 4050 c3 -5 8 -10 11 -10 2 0 4 5 4 10 0 6 -5 10 -11 10 -5 0
-7 -4 -4 -10z"/>
<path d="M4765 4012 c6 -4 11 -16 10 -27 0 -11 6 -31 14 -43 12 -19 12 -25 2
-32 -9 -5 -10 -10 -3 -14 6 -4 9 -16 7 -27 -2 -12 3 -33 13 -47 9 -14 11 -23
5 -19 -7 5 -13 6 -13 4 0 -8 248 -1256 286 -1442 l35 -170 -87 -155 c-331
-592 -520 -1139 -608 -1760 -43 -305 -42 -280 -12 -280 30 0 26 -16 61 240 56
412 160 800 317 1190 84 206 334 690 348 673 4 -5 15 -46 24 -93 10 -47 58
-261 108 -477 l90 -392 -26 -33 c-56 -74 -143 -328 -175 -509 -19 -106 -71
-531 -71 -578 0 -30 38 -28 44 2 3 12 12 92 21 177 38 370 72 538 155 752 55
143 64 149 85 56 9 -40 68 -283 131 -540 l116 -468 30 0 c23 0 28 4 24 18 -14
47 -224 896 -290 1173 -153 643 -214 923 -361 1644 -84 413 -151 739 -211
1025 -3 13 -9 29 -14 35 -5 6 -7 23 -6 38 2 15 0 30 -4 32 -5 3 -6 15 -2 27 3
14 1 19 -6 14 -6 -3 -13 -2 -17 4 -3 5 -12 10 -18 10 -8 0 -8 -3 -2 -8z m35
-52 c0 -5 -2 -10 -4 -10 -3 0 -8 5 -11 10 -3 6 -1 10 4 10 6 0 11 -4 11 -10z"/>
<path d="M3760 3160 c0 -5 5 -10 10 -10 6 0 10 5 10 10 0 6 -4 10 -10 10 -5 0
-10 -4 -10 -10z"/>
<path d="M3767 3133 c-4 -3 -7 -11 -7 -17 0 -6 5 -5 12 2 6 6 9 14 7 17 -3 3
-9 2 -12 -2z"/>
<path d="M3761 3063 c8 -9 8 -13 1 -13 -6 0 -9 -7 -6 -15 4 -8 2 -15 -4 -15
-6 0 -12 5 -14 12 -2 6 -9 8 -16 4 -15 -9 -4 -36 13 -30 7 3 15 -4 18 -15 4
-18 2 -19 -15 -10 -23 12 -39 2 -18 -11 9 -6 10 -10 4 -10 -13 0 -17 -57 -35
-510 -22 -578 -80 -1761 -109 -2225 -14 -234 -15 -225 18 -225 l28 0 17 293
c35 584 47 811 72 1307 32 660 56 1226 55 1320 -1 41 1 93 5 116 4 32 2 41
-10 41 -11 0 -12 -4 -4 -14z m-24 -165 c-3 -8 -6 -5 -6 6 -1 11 2 17 5 13 3
-3 4 -12 1 -19z"/>
<path d="M15924 2115 c0 -71 1 -99 3 -62 2 37 2 96 0 130 -2 34 -3 4 -3 -68z"/>
<path d="M15933 1860 c0 -36 2 -50 4 -32 2 17 2 47 0 65 -2 17 -4 3 -4 -33z"/>
<path d="M15960 759 c0 -41 -4 -144 -9 -229 -6 -85 -13 -239 -17 -342 l-6
-188 26 0 27 0 -7 413 c-4 226 -8 414 -10 416 -2 2 -4 -29 -4 -70z"/>
<path d="M7570 766 c0 -24 13 -201 30 -393 16 -191 30 -354 30 -360 0 -8 13
-13 31 -13 30 0 31 1 25 38 -3 20 -24 197 -46 392 -23 195 -43 361 -45 368
-10 28 -25 9 -25 -32z"/>
<path d="M8732 438 c-25 -30 -71 -286 -72 -395 0 -39 2 -43 24 -43 22 0 23 4
35 118 7 64 19 151 28 192 9 41 17 88 17 104 1 32 -15 44 -32 24z"/>
</g>
</svg>
